Coordinates
version=1
nRows=31
nColumns=38
inDegrees=no

Units are S.I. units (second, meters, Newtons, ...)
If the header above contains a line with 'inDegrees', this indicates whether rotational values are in degrees (yes) or radians (no).

endheader
time	pelvis_tilt	pelvis_list	pelvis_rotation	pelvis_tx	pelvis_ty	pelvis_tz	hip_flexion_r	hip_adduction_r	hip_rotation_r	knee_angle_r	ankle_angle_r	subtalar_angle_r	mtp_angle_r	hip_flexion_l	hip_adduction_l	hip_rotation_l	knee_angle_l	ankle_angle_l	subtalar_angle_l	mtp_angle_l	lumbar_extension	lumbar_bending	lumbar_rotation	arm_flex_r	arm_add_r	arm_rot_r	elbow_flex_r	pro_sup_r	wrist_flex_r	wrist_dev_r	arm_flex_l	arm_add_l	arm_rot_l	elbow_flex_l	pro_sup_l	wrist_flex_l	wrist_dev_l
55	-2.95532	1.33991	-1.75232	0.656061	0.21683	0.547709	1.1496	-0.418858	0.169591	2.0944	0.514251	0	0	1.12357	-0.311925	0.0230072	2.0944	0.464519	0	0	-1.15186	-0.0296729	-0.0272298	1.11373	-0.742377	0.361814	1.34849	0.918613	0	0	1.02527	-0.550644	0.251383	1.53688	0.968189	0	0
55.01	-3.03012	1.37521	-1.69057	0.660588	0.219058	0.546582	1.15437	-0.390152	0.13134	2.0944	0.523599	0	0	1.16644	-0.347217	0.0496007	2.0944	0.458073	0	0	-1.10708	-0.0355753	-0.00762531	1.10118	-0.725979	0.36058	1.31285	0.95282	0	0	1.00437	-0.56285	0.258697	1.5392	0.915115	0	0
55.02	-3.01687	1.38432	-1.69316	0.657708	0.220745	0.551299	1.16419	-0.362564	0.168694	2.0944	0.51219	0	0	1.16697	-0.330691	0.0502965	2.0944	0.460282	0	0	-1.0939	-0.0256964	-0.0157924	1.09353	-0.70383	0.24933	1.26361	1.56964	0	0	0.986968	-0.57061	0.270057	1.54043	0.791134	0	0
55.03	-2.90872	1.3522	-1.8136	0.658761	0.220334	0.561163	1.13708	-0.361407	0.194351	2.0944	0.50825	0	0	1.10473	-0.327654	-0.00507692	2.0944	0.453236	0	0	-1.12793	-0.0522665	-0.0345587	1.11252	-0.699771	0.256936	1.25059	1.56528	0	0	0.998066	-0.572449	0.27362	1.53152	0.78247	0	0
55.04	-2.87445	1.39476	-1.85548	0.659718	0.222037	0.560191	1.18313	-0.345878	0.195691	2.0944	0.501076	0	0	1.14917	-0.334479	0.00546311	2.0944	0.455617	0	0	-1.07309	-0.0585809	-0.0290386	1.09079	-0.709514	0.367424	1.25717	1.0476	0	0	0.972716	-0.578839	0.278437	1.52126	0.827636	0	0
55.05	-2.96979	1.41898	-1.75003	0.65842	0.222056	0.560953	1.18898	-0.342027	0.166564	2.0944	0.499798	0	0	1.18367	-0.329568	0.0361333	2.0944	0.448689	0	0	-1.04456	-0.0365161	-0.0181554	1.09813	-0.708606	0.385273	1.23431	1.07567	0	0	0.960137	-0.582344	0.281482	1.51366	0.808615	0	0
55.06	-2.95694	1.43186	-1.7667	0.658754	0.222693	0.564028	1.19761	-0.334711	0.163792	2.0944	0.49905	0	0	1.19096	-0.330345	0.033007	2.0944	0.446428	0	0	-1.0249	-0.0399045	-0.0178518	1.1011	-0.704435	0.398341	1.2121	1.10243	0	0	0.949753	-0.587279	0.283027	1.50675	0.794058	0	0
55.07	-2.81716	1.47141	-1.93709	0.661691	0.220853	0.563381	1.26682	-0.329972	0.157518	2.0944	0.482425	0	0	1.22933	-0.351176	0.0171965	2.0944	0.440877	0	0	-0.975462	-0.0680828	-0.00748656	1.10764	-0.700552	0.413847	1.18895	1.12788	0	0	0.939335	-0.592706	0.285441	1.49542	0.781615	0	0
55.08	-2.74086	1.48656	-2.01755	0.661848	0.221611	0.566047	1.27917	-0.323906	0.156635	2.0944	0.481641	0	0	1.23984	-0.352183	0.0124469	2.0944	0.438228	0	0	-0.947549	-0.070582	-0.00319168	1.10539	-0.698327	0.423735	1.16755	1.15345	0	0	0.92451	-0.585668	0.278745	1.44538	0.818627	0	0
55.09	-2.67488	1.49802	-2.08725	0.662103	0.22266	0.568931	1.2854	-0.319255	0.153596	2.0944	0.482895	0	0	1.24603	-0.354006	0.0083063	2.0944	0.436607	0	0	-0.925498	-0.0756992	-0.000833439	1.10149	-0.685062	0.350841	1.13224	1.56428	0	0	0.906511	-0.593673	0.416701	1.43515	0	0	0
55.1	-2.43213	1.51044	-2.33672	0.661226	0.222318	0.573058	1.31116	-0.298139	0.165824	2.0944	0.466207	0	0	1.25153	-0.348381	-0.00791549	2.08313	0.435715	0	0	-0.900211	-0.0794557	-0.00560925	1.11095	-0.68464	0.420216	1.11624	1.36471	0	0	0.914156	-0.572138	0.275719	1.16203	1.5708	0	0
55.11	-2.28457	1.51255	-2.48466	0.662657	0.223298	0.575926	1.31691	-0.29001	0.158739	2.0944	0.465454	0	0	1.24572	-0.347798	-0.019572	2.06827	0.433305	0	0	-0.884748	-0.0868302	-0.026679	1.11476	-0.690764	0.595122	1.16002	0.677704	0	0	0.884496	-0.570165	-0.0605076	1.67834	0.328059	0	0
55.12	-2.2069	1.51878	-2.56654	0.662458	0.22328	0.583105	1.30215	-0.28747	0.145854	2.08528	0.468738	0	0	1.23282	-0.34703	-0.0285517	2.04423	0.432656	0	0	-0.871541	-0.086518	-0.0163562	1.11162	-0.694528	0.606559	1.13925	0.702503	0	0	0.872997	-0.590784	0.213533	1.39018	0.328059	0	0
55.13	-2.66115	1.503	-2.09127	0.66024	0.225856	0.595226	1.21933	-0.28882	0.131974	2.0559	0.486951	0	0	1.17895	-0.328727	-0.0246199	2.01758	0.43659	0	0	-0.8999	-0.0629637	-0.0281501	1.11506	-0.688324	0.623405	1.11695	0.706078	0	0	0.862308	-0.597012	0.219283	1.37488	0.361082	0	0
55.14	-2.64683	1.50885	-2.10899	0.660025	0.226181	0.602025	1.20509	-0.288623	0.119918	2.03104	0.485749	0	0	1.16637	-0.328054	-0.0310536	1.99552	0.434074	0	0	-0.890131	-0.0624364	-0.0292662	1.11719	-0.683099	0.641017	1.09402	0.726313	0	0	0.849764	-0.601522	0.221724	1.35416	0.353499	0	0
55.15	-2.65055	1.51259	-2.10851	0.659833	0.226619	0.6091	1.18778	-0.289664	0.106604	2.00603	0.488952	0	0	1.1512	-0.327548	-0.0372524	1.97324	0.430436	0	0	-0.882574	-0.0617636	-0.0304767	1.11741	-0.67627	0.652764	1.06916	0.784084	0	0	0.836722	-0.605598	0.223634	1.33193	0.342065	0	0
55.16	-2.65986	1.51527	-2.10237	0.659602	0.227123	0.616174	1.16957	-0.291782	0.0932344	1.98071	0.491228	0	0	1.13513	-0.326991	-0.0436321	1.95107	0.426043	0	0	-0.875824	-0.0611365	-0.0318236	1.1159	-0.670876	0.664425	1.04811	0.807758	0	0	0.822295	-0.608321	0.224289	1.312	0.349137	0	0
55.17	-2.68785	1.51664	-2.07799	0.659505	0.227682	0.623321	1.14943	-0.293366	0.0796068	1.95483	0.491638	0	0	1.11749	-0.32823	-0.0505719	1.92906	0.421112	0	0	-0.87043	-0.0607101	-0.0324076	1.11202	-0.66571	0.671644	1.02876	0.828692	0	0	0.806895	-0.610135	0.222615	1.29267	0.356442	0	0
55.18	-2.7177	1.51772	-2.05211	0.65949	0.228307	0.630319	1.12919	-0.294523	0.0662012	1.9289	0.491438	0	0	1.09952	-0.330574	-0.0581871	1.90732	0.417051	0	0	-0.864859	-0.0606348	-0.0324454	1.10594	-0.662168	0.677595	1.01138	0.844811	0	0	0.79084	-0.610725	0.218288	1.2734	0.361983	0	0
55.19	-2.73538	1.51849	-2.03878	0.659557	0.228956	0.637115	1.10975	-0.295492	0.0539299	1.9035	0.493286	0	0	1.08094	-0.333165	-0.0671409	1.88549	0.414378	0	0	-0.858834	-0.0614807	-0.0322841	1.0973	-0.660173	0.681604	0.99758	0.854564	0	0	0.774692	-0.610493	0.212605	1.25447	0.36683	0	0
55.2	2.66425	1.54474	-1.13539	0.659089	0.228979	0.638586	1.10516	-0.287504	0.00509384	1.88552	0.493082	0	0	1.12631	-0.335693	-0.0190807	1.88198	0.404217	0	0	-0.82316	-0.0223035	-0.0235042	1.08297	-0.66083	0.687347	0.988277	0.851607	0	0	0.753629	-0.611223	0.207086	1.23694	0.355368	0	0
55.21	2.49684	1.54811	-0.972098	0.659015	0.229687	0.644487	1.0917	-0.286932	-0.00583916	1.86144	0.495275	0	0	1.11353	-0.339006	-0.0275065	1.86126	0.403685	0	0	-0.811002	-0.0218418	-0.0218481	1.06818	-0.660331	0.684509	0.977892	0.859035	0	0	0.733972	-0.60714	0.19565	1.21698	0.360181	0	0
55.22	1.29752	1.56767	0.214905	0.658892	0.229313	0.648139	1.10604	-0.289005	-0.000932911	1.84057	0.494212	0	0	1.11254	-0.33785	-0.0502778	1.84037	0.402725	0	0	-0.783543	-0.0348446	-0.0220002	1.05177	-0.661345	0.680017	0.969114	0.863645	0	0	0.71349	-0.601573	0.183061	1.198	0.36463	0	0
55.23	0.640301	1.56627	0.868211	0.658713	0.23007	0.654374	1.09137	-0.289553	-0.00846278	1.81677	0.49388	0	0	1.09447	-0.339081	-0.0624178	1.81722	0.404856	0	0	-0.773644	-0.0358007	-0.0203954	1.03184	-0.662015	0.667955	0.960134	0.884381	0	0	0.695139	-0.593676	0.169399	1.17632	0.397347	0	0
55.24	0.504178	1.56506	1.00176	0.658343	0.230821	0.660895	1.07415	-0.290905	-0.0169895	1.79203	0.493076	0	0	1.07491	-0.339237	-0.0739483	1.7932	0.40698	0	0	-0.765716	-0.0353346	-0.0195068	1.01096	-0.663263	0.656086	0.953723	0.889746	0	0	0.6758	-0.585937	0.152604	1.15613	0.403113	0	0
55.25	0.427235	1.56324	1.07643	0.657944	0.231598	0.667338	1.05725	-0.291875	-0.0257554	1.76726	0.491559	0	0	1.05647	-0.339734	-0.0848476	1.76953	0.408467	0	0	-0.757314	-0.0342292	-0.0182147	0.988139	-0.664596	0.64146	0.948412	0.895825	0	0	0.655954	-0.577074	0.133948	1.13621	0.408697	0	0
55.26	0.358977	1.56089	1.14223	0.657545	0.232378	0.673666	1.04112	-0.291991	-0.0338415	1.74215	0.488927	0	0	1.03893	-0.340018	-0.0948588	1.74598	0.409745	0	0	-0.748305	-0.0330535	-0.0167861	0.964426	-0.666395	0.628328	0.944494	0.886893	0	0	0.63529	-0.567859	0.114289	1.11645	0.391228	0	0
55.27	0.364635	1.55925	1.13455	0.657116	0.233119	0.680205	1.02364	-0.291755	-0.0424442	1.71635	0.485919	0	0	1.02094	-0.340471	-0.104251	1.72222	0.409406	0	0	-0.740599	-0.0314821	-0.0152166	0.938904	-0.667548	0.610164	0.939454	0.893942	0	0	0.615294	-0.55704	0.094104	1.09748	0.397601	0	0
55.28	0.400998	1.55832	1.09648	0.656644	0.233829	0.686874	1.00542	-0.291513	-0.0509075	1.6901	0.480189	0	0	1.00245	-0.340847	-0.113461	1.69828	0.407712	0	0	-0.733937	-0.0296069	-0.0137246	0.912131	-0.667591	0.589482	0.933993	0.904121	0	0	0.595655	-0.54555	0.0736386	1.079	0.403713	0	0
55.29	0.389946	1.55854	1.10556	0.656214	0.234521	0.693727	0.986988	-0.291069	-0.0575388	1.66419	0.476432	0	0	0.982235	-0.340494	-0.124297	1.67324	0.404984	0	0	-0.728389	-0.0287657	-0.0125308	0.884162	-0.666545	0.566898	0.928813	0.916592	0	0	0.57645	-0.533869	0.0534535	1.06005	0.409762	0	0
55.3	0.33616	1.55933	1.15709	0.655749	0.235204	0.700639	0.968791	-0.290546	-0.0630698	1.63768	0.469305	0	0	0.961044	-0.339821	-0.136844	1.64742	0.40217	0	0	-0.723292	-0.02854	-0.0115772	0.855911	-0.664554	0.54355	0.922037	0.93035	0	0	0.557809	-0.521666	0.0332859	1.04017	0.415505	0	0
